# Blender v2.76 (sub 0) OBJ File: ''
# www.blender.org
mtllib Pyramid_Structure_Collision_Mesh.mtl
o Pyramid.002_Cone.003
v -12.201248 3.149469 12.201249
v -12.201248 3.149473 -12.201247
v -9.111490 3.149472 -9.111489
v -9.111490 3.014248 -9.111489
v -12.282714 3.014249 -12.282713
v -12.282714 3.014245 12.282715
v -9.111490 3.014246 9.111491
v 12.282714 3.014245 12.282715
v 9.111490 3.014246 9.111491
v 12.282714 3.014249 -12.282713
v 9.111490 3.014248 -9.111489
v 12.201248 3.149469 12.201249
v -9.111490 3.149470 9.111491
v 12.201248 3.149473 -12.201247
v 9.111490 3.149470 9.111491
v 9.111490 3.149472 -9.111489
v -9.111490 -3.149470 -9.111491
v -12.201248 -3.149469 -12.201249
v -12.201248 -3.149473 12.201247
v -12.282714 -3.014249 12.282713
v -12.282714 -3.014245 -12.282715
v -9.111490 -3.014246 -9.111491
v 12.282714 -3.014249 12.282713
v -9.111490 -3.014248 9.111489
v 12.282714 -3.014245 -12.282715
v 9.111490 -3.014248 9.111489
v 9.111490 -3.014246 -9.111491
v -9.111490 -3.149472 9.111489
v 12.201248 -3.149473 12.201247
v 9.111490 -3.149472 9.111489
v 12.201248 -3.149469 -12.201249
v 9.111490 -3.149470 -9.111491
v 14.025091 0.000002 -14.025095
v -14.025095 0.000002 -14.025091
v 0.000000 23.064240 0.000004
v -14.025091 -0.000002 14.025095
v 14.025094 -0.000002 14.025092
v 0.000000 23.064240 0.000004
v 0.000000 23.064240 0.000004
v 0.000000 23.064240 0.000004
v 0.000000 -23.064240 -0.000004
v 0.000000 -23.064240 -0.000004
v 0.000000 -23.064240 -0.000004
v 0.000000 -23.064240 -0.000004
vt 0.977814 0.291478
vt 0.986731 0.743632
vt 0.799352 0.793856
vt 0.972493 0.744137
vt 0.776400 0.842298
vt 0.934721 0.793856
vt 0.957673 0.842298
vt 0.045868 0.793856
vt 0.313606 0.843575
vt 0.006182 0.843575
vt 0.273919 0.793856
vt 0.313606 0.458434
vt 0.273919 0.508153
vt 0.006181 0.458434
vt 0.045868 0.508153
vt 0.776400 0.459711
vt 0.957673 0.459711
vt 0.799352 0.508153
vt 0.934721 0.508153
vt 0.960130 0.843575
vt 0.933357 0.007497
vt 0.935811 0.391360
vt 0.933357 0.390083
vt 0.972493 0.458434
vt 0.974368 0.744137
vt 0.801204 0.793856
vt 0.965451 0.389398
vt 0.962994 0.006219
vt 0.965451 0.007487
vt 0.948174 0.007487
vt 0.950631 0.390680
vt 0.948174 0.389398
vt 0.977814 0.006279
vt 0.979670 0.291418
vt 0.986731 0.458434
vt 0.988587 0.743692
vt 0.827817 0.445995
vt 0.827817 0.006219
vt 0.425789 0.445995
vt 0.425789 0.006219
vt 0.764037 0.897433
vt 0.764037 0.458434
vt 0.538822 0.897433
vt 0.538822 0.458434
vt 0.960130 0.458434
vt 0.935811 0.006219
vt 0.974368 0.458434
vt 0.801204 0.508153
vt 0.962994 0.390680
vt 0.950631 0.006219
vt 0.979670 0.006219
vt 0.988587 0.458494
vn 0.000000 1.000000 0.000000
vn 0.000000 -1.000000 -0.000000
vn 0.000000 0.516000 -0.856600
vn 0.000000 0.516000 0.856600
vn 0.000000 0.000000 1.000000
vn 0.000000 0.000000 -1.000000
vn 0.856600 0.516000 0.000000
vn -0.856600 0.516000 0.000000
vn -1.000000 0.000000 0.000000
vn 1.000000 0.000000 0.000000
vn 0.000000 -0.516000 -0.856600
vn 0.000000 -0.516000 0.856600
vn 0.856600 -0.516000 -0.000000
vn -0.856600 -0.516000 -0.000000
vn 0.000000 -0.519600 0.854400
vn -0.000000 -0.519600 -0.854400
vn -0.854400 -0.519600 0.000000
vn 0.854400 -0.519600 -0.000000
vn 0.000000 0.519600 0.854400
vn -0.000000 0.519600 -0.854400
vn -0.854400 0.519600 0.000000
vn 0.854400 0.519600 -0.000000
usemtl Material.002_NONE
s 1
f 32/1/1 28/2/1 30/3/1
f 17/4/1 28/2/1 32/1/1
usemtl Material.002
f 1/5/1 3/6/1 2/7/1
f 4/8/2 6/9/2 5/10/2
f 7/11/2 8/12/2 6/9/2
f 9/13/2 10/14/2 8/12/2
f 11/15/2 5/10/2 10/14/2
f 12/16/1 13/3/1 1/5/1
f 14/17/1 15/18/1 12/16/1
f 2/7/1 16/19/1 14/17/1
f 14/17/3 5/20/3 2/7/3
f 1/21/4 8/22/4 12/23/4
f 3/24/5 11/25/5 16/4/5
f 15/18/6 7/26/6 13/3/6
f 12/27/7 10/28/7 14/29/7
f 2/30/8 6/31/8 1/32/8
f 16/33/9 9/34/9 15/1/9
f 13/35/10 4/36/10 3/2/10
f 17/6/2 19/5/2 18/7/2
f 20/9/1 22/8/1 21/10/1
f 23/12/1 24/11/1 20/9/1
f 25/14/1 26/13/1 23/12/1
f 21/10/1 27/15/1 25/14/1
f 28/3/2 29/16/2 19/5/2
f 30/18/2 31/17/2 29/16/2
f 32/19/2 18/7/2 31/17/2
f 21/20/11 31/17/11 18/7/11
f 23/22/12 19/21/12 29/23/12
f 27/25/5 17/24/5 32/4/5
f 24/26/6 30/18/6 28/3/6
f 25/28/13 29/27/13 31/29/13
f 20/31/14 18/30/14 19/32/14
f 26/34/9 32/33/9 30/1/9
f 22/36/10 28/35/10 17/2/10
f 33/37/15 35/38/15 34/38/15
f 36/39/16 38/40/16 37/40/16
f 37/41/17 39/42/17 33/42/17
f 34/43/18 40/44/18 36/44/18
f 34/38/19 41/37/19 33/37/19
f 37/40/20 42/39/20 36/39/20
f 33/42/21 43/41/21 37/41/21
f 36/44/22 44/43/22 34/43/22
f 13/3/1 3/6/1 1/5/1
f 7/11/2 6/9/2 4/8/2
f 9/13/2 8/12/2 7/11/2
f 11/15/2 10/14/2 9/13/2
f 4/8/2 5/10/2 11/15/2
f 15/18/1 13/3/1 12/16/1
f 16/19/1 15/18/1 14/17/1
f 3/6/1 16/19/1 2/7/1
f 10/45/3 5/20/3 14/17/3
f 6/46/4 8/22/4 1/21/4
f 4/47/5 11/25/5 3/24/5
f 9/48/6 7/26/6 15/18/6
f 8/49/7 10/28/7 12/27/7
f 5/50/8 6/31/8 2/30/8
f 11/51/9 9/34/9 16/33/9
f 7/52/10 4/36/10 13/35/10
f 28/3/2 19/5/2 17/6/2
f 24/11/1 22/8/1 20/9/1
f 26/13/1 24/11/1 23/12/1
f 27/15/1 26/13/1 25/14/1
f 22/8/1 27/15/1 21/10/1
f 30/18/2 29/16/2 28/3/2
f 32/19/2 31/17/2 30/18/2
f 17/6/2 18/7/2 32/19/2
f 25/45/11 31/17/11 21/20/11
f 20/46/12 19/21/12 23/22/12
f 22/47/5 17/24/5 27/25/5
f 26/48/6 30/18/6 24/26/6
f 23/49/13 29/27/13 25/28/13
f 21/50/14 18/30/14 20/31/14
f 27/51/9 32/33/9 26/34/9
f 24/52/10 28/35/10 22/36/10
f 39/37/5 35/38/5 33/37/5
f 40/39/5 38/40/5 36/39/5
f 38/41/5 39/42/5 37/41/5
f 35/43/5 40/44/5 34/43/5
f 44/38/5 41/37/5 34/38/5
f 43/40/5 42/39/5 37/40/5
f 41/42/5 43/41/5 33/42/5
f 42/44/5 44/43/5 36/44/5
