# Blender v2.73 (sub 0) OBJ File: 'lectureandcinema.blend'
# www.blender.org
mtllib screen.mtl
o Plane.001
v -8.975895 8.677345 0.778560
v -8.377502 8.677345 0.526039
v -4.787145 8.677345 -0.729305
v -4.188751 8.677345 -0.885967
v -0.598393 8.677345 -1.420180
v -0.000000 8.677345 -1.432321
v 0.598393 8.677345 -1.420180
v 3.590358 8.677345 -1.024959
v 4.188751 8.677345 -0.885967
v 4.787145 8.677345 -0.729305
v 8.377501 8.677345 0.526039
v 8.975895 -2.141060 0.778560
v 5.983931 -2.141060 -0.366957
v 5.385538 -2.141060 -0.555973
v 4.787145 -2.141060 -0.729305
v 1.196786 -2.141060 -1.384410
v 0.598393 -2.141060 -1.420179
v -2.991965 -2.141060 -1.145290
v -3.590358 -2.141060 -1.024958
v -4.188751 -2.141060 -0.885967
v -7.180717 -2.141060 0.054140
v -7.779109 -2.141060 0.284236
v -8.377501 -2.141060 0.526040
v -8.975895 -2.141060 0.778560
v -9.574288 -2.141060 1.040806
v -9.574288 8.677345 1.040805
v 8.975895 8.677345 0.778560
v 9.574288 8.677345 1.040805
v 9.574288 -2.141060 1.040806
v -7.779110 8.677345 0.284235
v -7.180717 8.677345 0.054139
v -6.582324 8.677345 -0.163259
v -5.983931 8.677345 -0.366958
v -5.385538 8.677345 -0.555973
v -3.590358 8.677345 -1.024959
v -2.991965 8.677345 -1.145291
v -2.393572 8.677345 -1.245977
v -1.795179 8.677345 -1.326013
v -1.196786 8.677345 -1.384411
v 1.196786 8.677345 -1.384411
v 1.795179 8.677345 -1.326013
v 2.393572 8.677345 -1.245977
v 2.991965 8.677345 -1.145291
v 5.385538 8.677345 -0.555973
v 5.983931 8.677345 -0.366958
v 6.582324 8.677345 -0.163259
v 7.180717 8.677345 0.054139
v 7.779109 8.677345 0.284235
v 8.377502 -2.141060 0.526040
v 7.779110 -2.141060 0.284236
v 7.180717 -2.141060 0.054140
v 6.582324 -2.141060 -0.163258
v 4.188751 -2.141060 -0.885967
v 3.590358 -2.141060 -1.024958
v 2.991965 -2.141060 -1.145290
v 2.393572 -2.141060 -1.245976
v 1.795179 -2.141060 -1.326012
v 0.000000 -2.141060 -1.432320
v -0.598393 -2.141060 -1.420179
v -1.196786 -2.141060 -1.384410
v -1.795179 -2.141060 -1.326012
v -2.393572 -2.141060 -1.245976
v -4.787145 -2.141060 -0.729305
v -5.385538 -2.141060 -0.555973
v -5.983931 -2.141060 -0.366957
v -6.582324 -2.141060 -0.163258
vt 0.968750 1.000000
vt 0.968750 0.000000
vt 1.000000 0.000000
vt 0.000000 0.000000
vt 0.031250 0.000000
vt 0.031250 1.000000
vt 0.062500 0.000000
vt 0.062500 1.000000
vt 0.093750 0.000000
vt 0.093750 1.000000
vt 0.125000 0.000000
vt 0.125000 1.000000
vt 0.156250 0.000000
vt 0.156250 1.000000
vt 0.187500 0.000000
vt 0.187500 1.000000
vt 0.218750 0.000000
vt 0.250000 0.000000
vt 0.250000 1.000000
vt 0.281250 0.000000
vt 0.281250 1.000000
vt 0.312500 0.000000
vt 0.343750 0.000000
vt 0.343750 1.000000
vt 0.375000 0.000000
vt 0.375000 1.000000
vt 0.406250 0.000000
vt 0.437500 0.000000
vt 0.437500 1.000000
vt 0.468750 0.000000
vt 0.500000 0.000000
vt 0.500000 1.000000
vt 0.531250 0.000000
vt 0.562500 0.000000
vt 0.562500 1.000000
vt 0.593750 0.000000
vt 0.593750 1.000000
vt 0.625000 0.000000
vt 0.625000 1.000000
vt 0.656250 0.000000
vt 0.656250 1.000000
vt 0.687500 0.000000
vt 0.687500 1.000000
vt 0.718750 0.000000
vt 0.718750 1.000000
vt 0.750000 0.000000
vt 0.750000 1.000000
vt 0.781250 0.000000
vt 0.781250 1.000000
vt 0.812500 0.000000
vt 0.812500 1.000000
vt 0.843750 0.000000
vt 0.843750 1.000000
vt 0.875000 0.000000
vt 0.875000 1.000000
vt 0.906250 0.000000
vt 0.937500 0.000000
vt 0.937500 1.000000
vt 1.000000 1.000000
vt 0.000000 1.000000
vt 0.218750 1.000000
vt 0.312500 1.000000
vt 0.406250 1.000000
vt 0.468750 1.000000
vt 0.531250 1.000000
vt 0.906250 1.000000
vn -0.395100 0.000000 0.918600
vn -0.401400 0.000000 0.915900
vn 0.401400 0.000000 0.915900
vn 0.395100 0.000000 0.918600
vn 0.381700 0.000000 0.924300
vn 0.366800 0.000000 0.930300
vn 0.350200 0.000000 0.936700
vn 0.331900 0.000000 0.943300
vn 0.311700 0.000000 0.950200
vn 0.289700 0.000000 0.957100
vn 0.265800 0.000000 0.964000
vn 0.239800 0.000000 0.970800
vn 0.211700 0.000000 0.977300
vn 0.181600 0.000000 0.983400
vn 0.149300 0.000000 0.988800
vn 0.114900 0.000000 0.993400
vn 0.078400 0.000000 0.996900
vn 0.040000 0.000000 0.999200
vn 0.000000 0.000000 1.000000
vn -0.040000 0.000000 0.999200
vn -0.078400 0.000000 0.996900
vn -0.114900 0.000000 0.993400
vn -0.149300 0.000000 0.988800
vn -0.181600 0.000000 0.983400
vn -0.211700 0.000000 0.977300
vn -0.239800 0.000000 0.970800
vn -0.265800 0.000000 0.964000
vn -0.289700 0.000000 0.957100
vn -0.311700 0.000000 0.950200
vn -0.331900 0.000000 0.943300
vn -0.350200 0.000000 0.936700
vn -0.366800 0.000000 0.930300
vn -0.381700 0.000000 0.924300
usemtl Material.001
s 1
f 27/1/1 12/2/1 29/3/2
f 25/4/3 24/5/4 1/6/4
f 24/5/4 23/7/5 2/8/5
f 23/7/5 22/9/6 30/10/6
f 22/9/6 21/11/7 31/12/7
f 21/11/7 66/13/8 32/14/8
f 66/13/8 65/15/9 33/16/9
f 33/16/9 65/15/9 64/17/10
f 64/17/10 63/18/11 3/19/11
f 3/19/11 63/18/11 20/20/12
f 4/21/12 20/20/12 19/22/13
f 19/22/13 18/23/14 36/24/14
f 18/23/14 62/25/15 37/26/15
f 37/26/15 62/25/15 61/27/16
f 61/27/16 60/28/17 39/29/17
f 39/29/17 60/28/17 59/30/18
f 59/30/18 58/31/19 6/32/19
f 6/32/19 58/31/19 17/33/20
f 17/33/20 16/34/21 40/35/21
f 16/34/21 57/36/22 41/37/22
f 57/36/22 56/38/23 42/39/23
f 56/38/23 55/40/24 43/41/24
f 55/40/24 54/42/25 8/43/25
f 54/42/25 53/44/26 9/45/26
f 53/44/26 15/46/27 10/47/27
f 15/46/27 14/48/28 44/49/28
f 14/48/28 13/50/29 45/51/29
f 13/50/29 52/52/30 46/53/30
f 52/52/30 51/54/31 47/55/31
f 47/55/31 51/54/31 50/56/32
f 50/56/32 49/57/33 11/58/33
f 11/58/33 49/57/33 12/2/1
f 28/59/2 27/1/1 29/3/2
f 26/60/3 25/4/3 1/6/4
f 1/6/4 24/5/4 2/8/5
f 2/8/5 23/7/5 30/10/6
f 30/10/6 22/9/6 31/12/7
f 31/12/7 21/11/7 32/14/8
f 32/14/8 66/13/8 33/16/9
f 34/61/10 33/16/9 64/17/10
f 34/61/10 64/17/10 3/19/11
f 4/21/12 3/19/11 20/20/12
f 35/62/13 4/21/12 19/22/13
f 35/62/13 19/22/13 36/24/14
f 36/24/14 18/23/14 37/26/15
f 38/63/16 37/26/15 61/27/16
f 38/63/16 61/27/16 39/29/17
f 5/64/18 39/29/17 59/30/18
f 5/64/18 59/30/18 6/32/19
f 7/65/20 6/32/19 17/33/20
f 7/65/20 17/33/20 40/35/21
f 40/35/21 16/34/21 41/37/22
f 41/37/22 57/36/22 42/39/23
f 42/39/23 56/38/23 43/41/24
f 43/41/24 55/40/24 8/43/25
f 8/43/25 54/42/25 9/45/26
f 9/45/26 53/44/26 10/47/27
f 10/47/27 15/46/27 44/49/28
f 44/49/28 14/48/28 45/51/29
f 45/51/29 13/50/29 46/53/30
f 46/53/30 52/52/30 47/55/31
f 48/66/32 47/55/31 50/56/32
f 48/66/32 50/56/32 11/58/33
f 27/1/1 11/58/33 12/2/1
